PathFileType	4	(X/Y/Z)	8_coords_data.trc
DataRate	CameraRate	NumFrames	NumMarkers	Units	OrigDataRate	OrigDataStartFrame	OrigNumFrames
30.0	30.0	8	21	m	30.0	52	62
Frame#	Time	THUMB_TIP	THUMB_IP	THUMB_MCP	THUMB_CMC	INDEX_TIP	INDEX_DIP	INDEX_PIP	INDEX_MCP	MIDDLE_TIP	MIDDLE_DIP	MIDDLE_PIP	MIDDLE_MCP	RING_TIP	RING_DIP	RING_PIP	RING_MCP	PINKY_TIP	PINKY_DIP	PINKY_PIP	PINKY_MCP	WRIST
X1	Y1	Z1	X2	Y2	Z2	X3	Y3	Z3	X4	Y4	Z4	X5	Y5	Z5	X6	Y6	Z6	X7	Y7	Z7	X8	Y8	Z8	X9	Y9	Z9	X10	Y10	Z10	X11	Y11	Z11	X12	Y12	Z12	X13	Y13	Z13	X14	Y14	Z14	X15	Y15	Z15	X16	Y16	Z16	X17	Y17	Z17	X18	Y18	Z18	X19	Y19	Z19	X20	Y20	Z20	X21	Y21	Z21
50	1.6999999999999926	0.5232694387278634	-0.026759893499531562	-0.15493907507983232	0.5044026034229712	-0.03024236605899	-0.1422933283462191	0.48393795802908424	-0.033650200824024035	-0.11908977363758266	0.4749746071878951	-0.03359283061817275	-0.07539143213178595	0.5839096986641459	0.01999266371951569	-0.15303481583830758	0.5669908574899799	0.018153136233890366	-0.14684054816948905	0.5437457127217067	0.015904825246532917	-0.13753365956984678	0.5087383058751611	0.0007463343124932686	-0.11860384941540864	0.6008218119393064	0.02597631741989026	-0.13624265045012793	0.5839195687544829	0.02475624721437608	-0.12985315876340478	0.5568005751742875	0.024413956080011845	-0.11918298660093912	0.5188863769546116	0.009518670520886063	-0.10083109398815299	0.6038816364948267	0.024639958813613694	-0.1109511821362783	0.5871154369808123	0.02483747552102622	-0.10432883051419162	0.5636955255913088	0.024850103285935954	-0.0958619792666876	0.5286072642761807	0.009423630431856678	-0.08299501819720217	0.6007924209515375	0.016495130305248518	-0.08163392934209923	0.5844679769056986	0.014973635628059978	-0.07671482571017968	0.564218341515335	0.01295909209807855	-0.07154705056770905	0.5309421738034281	0.0018229688904128905	-0.06320637473701363	0.4622830810018608	-0.023011742144276925	-0.051989820119430985
51	1.7333333333333258	0.5236999136191176	-0.026748372847697932	-0.1545015811251831	0.5046449457521864	-0.030259934110186903	-0.142149369295312	0.4840626565067334	-0.03369056007437865	-0.11905347842896252	0.4750151481698959	-0.03358581961347196	-0.07537257158935234	0.5838514191521772	0.019911121390467357	-0.15314394118150082	0.5669280605724409	0.01817715771526396	-0.14693159022918495	0.543683159477243	0.01601946573079449	-0.13760266899601856	0.5087738275170639	0.0007576276868798137	-0.1185750328944069	0.600877162785901	0.025968577336059506	-0.13609714721112576	0.5839639230705408	0.024780701346769907	-0.12973072961841073	0.5568304153216974	0.024478100817572956	-0.11909631660390013	0.5189117934734385	0.009546845129510428	-0.10078283409219724	0.6038804148856611	0.024854229813740303	-0.11074322904208961	0.5871042794300266	0.0250423555605066	-0.10414581379992033	0.5636706482912525	0.025033193831322964	-0.09571700447032949	0.5286039383095501	0.009486699992016567	-0.08293603367920482	0.6009205474241346	0.016507699886717075	-0.08103516254378784	0.584553571472306	0.015027326183384315	-0.07624657278366609	0.564261828152802	0.013043932376616718	-0.07123425584809179	0.5309197842403977	0.0019009496687432126	-0.06317041711487459	0.4622830810018609	-0.023011742144276925	-0.051989820119430985
52	1.7666666666666588	0.5237309879254308	-0.026553521747468056	-0.1544060013855882	0.5046213036587872	-0.030137990136080317	-0.14215971404614403	0.4840580797679661	-0.03364096997018173	-0.11905770210999778	0.47502833090830443	-0.03356885675350174	-0.07537305451824733	0.5837852690545079	0.019812794053901572	-0.15324348249348368	0.5668561485804465	0.018189798836867666	-0.14701686491246885	0.5436063458431942	0.016128358230683815	-0.13767839778418528	0.5087832588575258	0.0007846470598821265	-0.11855879438098699	0.6008908684743708	0.026037852777573867	-0.13601417695030577	0.5839715475962259	0.02485624244816831	-0.1296627693856935	0.5568310532441093	0.0245513915373069	-0.11904626420532122	0.5189188684706133	0.009578362475172297	-0.10075357256617834	0.6038635992639498	0.025093913991148686	-0.11058020343612673	0.5870782905741565	0.025261550984916337	-0.10400560762903194	0.5636334812793562	0.025207924839043327	-0.09560810678848825	0.5285948989118758	0.009535077610533738	-0.08290454668003455	0.6009942943208926	0.016570650967214107	-0.08061358860982126	0.5845971927195681	0.015114119426408834	-0.07592172597900199	0.5642774208158468	0.01314182322009061	-0.07101979406849174	0.5308996913215279	0.00196255826882874	-0.06315629230696251	0.4622830810018609	-0.023011742144276925	-0.051989820119430985
54	1.8000000000000007	0.5235937607426259	-0.026436268675728014	-0.15447085295086704	0.5044910039042827	-0.030063614008716488	-0.14222638289249473	0.48398293271124715	-0.03359585659563402	-0.11907984366416613	0.4750144097020419	-0.033564646365270345	-0.07538253687124263	0.5837221979929244	0.019744305851560173	-0.1533116941733958	0.5667885777205837	0.018213323269653747	-0.14707401858019006	0.543531675571944	0.01622979753988185	-0.137736355000475	0.5087751841640662	0.0008133952092644892	-0.11855415131594904	0.6008675583298498	0.026186637324053463	-0.1359970401370635	0.5839504613894918	0.02497051114246307	-0.12964622379418472	0.5568077571856623	0.024616526757140433	-0.11903689518402422	0.51891035516903	0.009601541703037397	-0.10074796232245975	0.60382656317834	0.025337930426348465	-0.11052476134930339	0.5870368080191039	0.025460806209638198	-0.10396053837664426	0.5635901692116365	0.02533571255489564	-0.0955689080696232	0.5285878394803531	0.009556468333625334	-0.08289715999810504	0.6010129041232121	0.016629019059802186	-0.08047187738546191	0.5846053265729868	0.015168995430642762	-0.07581787588829453	0.5642763793756651	0.013188008608684965	-0.07095766847916735	0.5308889285023962	0.0019882664893814406	-0.06316489287312282	0.4622830810018608	-0.023011742144276925	-0.051989820119430985
55	1.833333333333334	0.5233414841789136	-0.02629642481341732	-0.15463731646893947	0.5042832362222336	-0.02996947990703802	-0.1423372412211643	0.48386963306069375	-0.03353806762889544	-0.119112900807827	0.4749904883651558	-0.03356065385320406	-0.07539733974156393	0.5836436679335447	0.019674856364309767	-0.1534098967158855	0.566708534685543	0.018229562454464943	-0.14715590699838546	0.5434479319841939	0.016318747819332513	-0.13781230049981336	0.5087615330447979	0.0008387127550996132	-0.11855461795421152	0.6008263038720209	0.026363339442339484	-0.13601144837401424	0.5839143102549825	0.025099788729936234	-0.12965629994974887	0.5567727168090056	0.024683673888953428	-0.11904638460360095	0.5188983737207267	0.009621285700708304	-0.10074866565565715	0.6037893108048433	0.025579392754015218	-0.11047980026854537	0.5869955846714353	0.025652412052081797	-0.10392499815572753	0.5635481857408506	0.025453278054075268	-0.09553692280789872	0.5285810104251634	0.009572904350419131	-0.08289448572186875	0.6010309332018879	0.016689276868980363	-0.08033638280397593	0.5846138187720735	0.01522203419280388	-0.07571842300255055	0.5642764781476511	0.013229096156815334	-0.0708983822028344	0.5308790392332033	0.0020104896290212837	-0.06317585719282165	0.4622830810018609	-0.023011742144276925	-0.051989820119430985
56	1.8666666666666674	0.5230546071964897	-0.026165187841803883	-0.15483813425365583	0.5040541878548127	-0.029878643273488437	-0.14246096520749174	0.4837476876213199	-0.03348232060396017	-0.11914831718190272	0.47496238464433893	-0.03355779993340502	-0.07541385989164384	0.5835634931579958	0.019610583627263423	-0.1535148397718431	0.5666282913420806	0.018242354162320118	-0.14724372443360506	0.5433659168062884	0.01639590609234487	-0.13789159133567436	0.5087479133829581	0.0008588590962729237	-0.11855690479505132	0.6007793110647887	0.026542858292000537	-0.13603925663782823	0.5838735074704453	0.025228083451018235	-0.12967803254595683	0.5567345894049553	0.024748224975471356	-0.11906396583813605	0.5188867969142985	0.009636969678234242	-0.10075160695333091	0.6037594484193899	0.025789824342887124	-0.11043623142883752	0.5869619465659561	0.02581610179936289	-0.10389075658134345	0.56351392756485	0.02555222595255835	-0.09550620212322025	0.5285753281174316	0.009586290855454815	-0.08289255795795475	0.6010492095763117	0.016746244264893684	-0.0802032566678949	0.5846232940676888	0.015271302237990114	-0.07561917052986744	0.5642780750545979	0.013266005950328896	-0.07083765726437713	0.5308704058871057	0.0020301802146861503	-0.0631847289468207	0.462283081001861	-0.023011742144276925	-0.051989820119430985
57	1.9000000000000008	0.5228148631667088	-0.026073775672411315	-0.155006439629101	0.503860584172443	-0.029814114831305805	-0.14256677842857104	0.48364659625109496	-0.03344330090194181	-0.11917781306495784	0.4749359315351216	-0.033557017647478204	-0.07542851148530189	0.5834956732282318	0.019557646155555664	-0.15360327194078144	0.566560264474283	0.01825556308052112	-0.1473186470512292	0.5432965513144228	0.016462001240083457	-0.13795955420307984	0.5087399287657662	0.00087209643949826	-0.11855772953790006	0.6007390091303052	0.026700094213892855	-0.13606237892688638	0.5838386001327781	0.025339392510287828	-0.12969648020085317	0.5567020799146186	0.02480555337537005	-0.11907886105965887	0.5188794927438857	0.009647971410291056	-0.1007527177205868	0.6037448638380998	0.02594069570614277	-0.11038506335617881	0.5869434264512974	0.025931552906944932	-0.10384965073365965	0.5634938891469615	0.02562412345929188	-0.09547082824196818	0.528571705310887	0.00959853018363388	-0.08288741573650626	0.6010685707278983	0.016794731346239433	-0.080068686233767	0.5846343791194681	0.015314859065963304	-0.07551595911571202	0.56428152400332	0.013299653095493857	-0.07077125127247536	0.530863410166024	0.0020482922874124343	-0.06318705727944596	0.462283081001861	-0.023011742144276925	-0.051989820119430985
58	1.933333333333334	0.522705136311614	-0.026053330173334888	-0.1550758248555436	0.5037595842699487	-0.02979883348756318	-0.14262442883904564	0.4835958427783701	-0.03343566293596434	-0.1191933170296578	0.4749169903985637	-0.033559254937858385	-0.07543772028607998	0.5834543501736048	0.01952222125303804	-0.15365193901855775	0.5665169871733081	0.018273077425071116	-0.14736183772420355	0.5432508572995538	0.016517786664117406	-0.13800149648885845	0.5087431825117747	0.0008766858120857757	-0.11855381182261959	0.600718038378584	0.026809957240805593	-0.1360627837336911	0.5838202613096725	0.02541770488972317	-0.12969672030954335	0.5566839459105102	0.02485101495632236	-0.1190802802717259	0.5188803260171136	0.009653669238390061	-0.1007479338020229	0.6037535562107317	0.026003438881766594	-0.11031734578494795	0.5869476243628159	0.02597839879023789	-0.10379354108852817	0.5634945932901936	0.025660502354368786	-0.09542489398384779	0.5285710517468947	0.009611522066453881	-0.0828751006870797	0.6010898581230364	0.01682953838700496	-0.07992888760981331	0.5846476997095341	0.015350756493606843	-0.07540466051371686	0.5642871733077985	0.013330948646093632	-0.07069495140344795	0.5308584316497564	0.002065780504727943	-0.06317839175779566	0.4622830810018608	-0.023011742144276925	-0.051989820119430985
